<?xml version="1.0" encoding="iso-8859-1"?>
<!-- Uploaded to: SVG Repo, www.svgrepo.com, Generator: SVG Repo Mixer Tools -->
<!DOCTYPE svg PUBLIC "-//W3C//DTD SVG 1.1//EN" "http://www.w3.org/Graphics/SVG/1.1/DTD/svg11.dtd">
<svg fill="#000000" height="800px" width="800px" version="1.1" id="Capa_1" xmlns="http://www.w3.org/2000/svg" xmlns:xlink="http://www.w3.org/1999/xlink" 
	 viewBox="0 0 60 60" xml:space="preserve">
<g>
	<path d="M60,2.542H0v46h38v7.856c0,0.584,0.476,1.06,1.06,1.06l0.456-0.018L45,51.956l5.196,5.196l0.334,0.306h0.41l1.06-0.06
		v-8.856h8V2.542z M46.851,6.542h2.042c0.552,0,1,0.447,1,1s-0.448,1-1,1h-2.042c-0.552,0-1-0.447-1-1S46.299,6.542,46.851,6.542z
		 M39.702,6.542h2.042c0.552,0,1,0.447,1,1s-0.448,1-1,1h-2.042c-0.552,0-1-0.447-1-1S39.15,6.542,39.702,6.542z M32.553,6.542
		h2.042c0.552,0,1,0.447,1,1s-0.448,1-1,1h-2.042c-0.552,0-1-0.447-1-1S32.001,6.542,32.553,6.542z M25.404,6.542h2.042
		c0.552,0,1,0.447,1,1s-0.448,1-1,1h-2.042c-0.552,0-1-0.447-1-1S24.852,6.542,25.404,6.542z M25,15.542h23c0.552,0,1,0.447,1,1
		s-0.448,1-1,1H25c-0.552,0-1-0.447-1-1S24.448,15.542,25,15.542z M25,21.542h11c0.552,0,1,0.447,1,1s-0.448,1-1,1H25
		c-0.552,0-1-0.447-1-1S24.448,21.542,25,21.542z M18.255,6.542h2.042c0.552,0,1,0.447,1,1s-0.448,1-1,1h-2.042
		c-0.552,0-1-0.447-1-1S17.703,6.542,18.255,6.542z M15,12.542c0-0.553,0.448-1,1-1s1,0.447,1,1v1.101c2.279,0.465,4,2.484,4,4.899
		c0,0.553-0.448,1-1,1s-1-0.447-1-1c0-1.302-0.839-2.402-2-2.816v5.438l2.229,1.734c0.777,0.604,1.281,1.511,1.383,2.488
		c0.1,0.957-0.182,1.882-0.793,2.605C19.085,28.86,18.091,29.438,17,29.66v0.882c0,0.553-0.448,1-1,1s-1-0.447-1-1v-0.878
		c-2.279-0.465-4-2.484-4-4.899c0-0.553,0.448-1,1-1s1,0.447,1,1c0,1.302,0.839,2.402,2,2.816v-5.438l-2.229-1.734
		c-0.777-0.604-1.282-1.513-1.383-2.491c-0.1-0.956,0.183-1.881,0.794-2.603c0.733-0.867,1.728-1.446,2.818-1.668V12.542z
		 M11.106,6.542h2.042c0.552,0,1,0.447,1,1s-0.448,1-1,1h-2.042c-0.552,0-1-0.447-1-1S10.554,6.542,11.106,6.542z M11,34.542h21
		c0.552,0,1,0.447,1,1s-0.448,1-1,1H11c-0.552,0-1-0.447-1-1S10.448,34.542,11,34.542z M4,13.693c0-0.553,0.448-1,1-1s1,0.447,1,1
		v2.061c0,0.553-0.448,1-1,1s-1-0.447-1-1V13.693z M4,20.905c0-0.553,0.448-1,1-1s1,0.447,1,1v2.061c0,0.553-0.448,1-1,1
		s-1-0.447-1-1V20.905z M4,28.117c0-0.553,0.448-1,1-1s1,0.447,1,1v2.061c0,0.553-0.448,1-1,1s-1-0.447-1-1V28.117z M4,35.33
		c0-0.553,0.448-1,1-1s1,0.447,1,1v2.061c0,0.553-0.448,1-1,1s-1-0.447-1-1V35.33z M6,44.542H4v-2c0-0.553,0.448-1,1-1s1,0.447,1,1
		c0.552,0,1,0.447,1,1S6.552,44.542,6,44.542z M6,8.542c0,0.553-0.448,1-1,1s-1-0.447-1-1v-2h2c0.552,0,1,0.447,1,1
		S6.552,8.542,6,8.542z M13,44.542h-2c-0.552,0-1-0.447-1-1s0.448-1,1-1h2c0.552,0,1,0.447,1,1S13.552,44.542,13,44.542z M20,44.542
		h-2c-0.552,0-1-0.447-1-1s0.448-1,1-1h2c0.552,0,1,0.447,1,1S20.552,44.542,20,44.542z M27,44.542h-2c-0.552,0-1-0.447-1-1
		s0.448-1,1-1h2c0.552,0,1,0.447,1,1S27.552,44.542,27,44.542z M33,44.542h-1c-0.552,0-1-0.447-1-1s0.448-1,1-1h1
		c0.552,0,1,0.447,1,1S33.552,44.542,33,44.542z M33,29.542h-8c-0.552,0-1-0.447-1-1s0.448-1,1-1h8c0.552,0,1,0.447,1,1
		S33.552,29.542,33,29.542z M50,54.128l-5-5l-5,5v-5.586v-3.896c3.535,2.549,6.464,2.549,10,0v3.896V54.128z M50.125,42.104
		c-0.154,0.055-0.298,0.137-0.426,0.243c-1.772,1.478-3.309,2.195-4.699,2.195s-2.927-0.718-4.698-2.194
		c-0.128-0.107-0.273-0.188-0.426-0.244C36.963,40.354,35,37.179,35,33.542c0-5.514,4.486-10,10-10s10,4.486,10,10
		C55,37.179,53.037,40.354,50.125,42.104z M56,23.542c0,0.553-0.448,1-1,1s-1-0.447-1-1v-1c0-0.553,0.448-1,1-1s1,0.447,1,1V23.542z
		 M56,16.709c0,0.553-0.448,1-1,1s-1-0.447-1-1v-2.333c0-0.553,0.448-1,1-1s1,0.447,1,1V16.709z M56,8.542c0,0.553-0.448,1-1,1
		s-1-0.447-1-1c-0.552,0-1-0.447-1-1s0.448-1,1-1h2V8.542z"/>
	<path d="M45,25.542c-4.411,0-8,3.589-8,8s3.589,8,8,8s8-3.589,8-8S49.411,25.542,45,25.542z"/>
	<path d="M13.999,18.83L15,19.609v-3.877c-0.494,0.176-0.944,0.464-1.292,0.875c-0.256,0.303-0.374,0.694-0.331,1.104
		C13.423,18.149,13.649,18.558,13.999,18.83z"/>
	<path d="M18.623,25.595c-0.046-0.438-0.272-0.847-0.622-1.118L17,23.698v3.878c0.494-0.176,0.944-0.464,1.292-0.875
		C18.548,26.397,18.666,26.005,18.623,25.595z"/>
</g>
</svg>